<svg width="32" height="32" viewBox="0 0 32 32" fill="none" xmlns="http://www.w3.org/2000/svg">
<path d="M15.9999 24C15.8344 24 15.6715 23.9587 15.5259 23.88L2.52588 16.88L3.47388 15.12L15.9999 21.864L28.5259 15.12L29.4739 16.88L16.4739 23.88C16.3283 23.9587 16.1654 24 15.9999 24Z" fill="black"/>
<path d="M15.9999 30C15.8344 30 15.6715 29.9587 15.5259 29.88L2.52588 22.88L3.47388 21.12L15.9999 27.864L28.5259 21.12L29.4739 22.88L16.4739 29.88C16.3283 29.9587 16.1654 30 15.9999 30V30Z" fill="black"/>
<path d="M16 18C15.8345 18 15.6716 17.9587 15.526 17.88L2.526 10.88C2.36725 10.7943 2.23464 10.6673 2.14221 10.5124C2.04978 10.3574 2.00098 10.1804 2.00098 10C2.00098 9.8196 2.04978 9.64256 2.14221 9.48764C2.23464 9.33272 2.36725 9.20568 2.526 9.12L15.526 2.12C15.6716 2.0414 15.8345 2.00025 16 2.00025C16.1655 2.00025 16.3284 2.0414 16.474 2.12L29.474 9.12C29.6328 9.20568 29.7654 9.33272 29.8578 9.48764C29.9502 9.64256 29.999 9.8196 29.999 10C29.999 10.1804 29.9502 10.3574 29.8578 10.5124C29.7654 10.6673 29.6328 10.7943 29.474 10.88L16.474 17.88C16.3284 17.9587 16.1655 18 16 18ZM5.11 10L16 15.864L26.89 10L16 4.136L5.11 10Z" fill="black"/>
</svg>
